<svg width="49" height="48" viewBox="0 0 49 48" fill="none" xmlns="http://www.w3.org/2000/svg">
<path d="M40.3801 11.18V36.78C40.3801 37.6733 40.1201 38.4733 39.6001 39.18C39.0801 39.8733 38.3801 40.34 37.5001 40.58L26.0401 43.88C25.8801 43.92 25.7001 43.96 25.5001 44H25.0601C24.6201 44 24.2201 43.94 23.8601 43.82C23.5001 43.7 23.1335 43.54 22.7601 43.34L15.2601 39.1C14.9801 38.94 14.7601 38.7333 14.6001 38.48C14.4401 38.2267 14.3601 37.94 14.3601 37.62C14.3601 37.14 14.5335 36.7333 14.8801 36.4C15.2135 36.0667 15.6201 35.9 16.1001 35.9H25.8201V12.28L18.5001 14.88C17.9268 15.0933 17.4601 15.4667 17.1001 16C16.7401 16.5067 16.5601 17.0733 16.5601 17.7V31.16C16.5601 31.72 16.4201 32.2267 16.1401 32.68C15.8735 33.1333 15.4935 33.4933 15.0001 33.76L11.5601 35.64C11.2401 35.8133 10.9201 35.9 10.6001 35.9C10.0535 35.9 9.58678 35.7067 9.20012 35.32C8.81345 34.9333 8.62012 34.46 8.62012 33.9V14.94C8.62012 14.2467 8.80012 13.6 9.16012 13C9.53345 12.3333 10.0201 11.8267 10.6201 11.48L22.9401 4.48C23.2201 4.32 23.5201 4.2 23.8401 4.12C24.1601 4.04 24.4801 4 24.8001 4C25.0268 4 25.2334 4.02 25.4201 4.06C25.6068 4.08667 25.8135 4.13333 26.0401 4.2L37.5001 7.38C37.9401 7.5 38.3335 7.68 38.6801 7.92C39.0268 8.16 39.3268 8.44667 39.5801 8.78C39.8468 9.12667 40.0468 9.5 40.1801 9.9C40.3135 10.3133 40.3801 10.74 40.3801 11.18ZM37.7401 36.78V11.18C37.7401 10.8733 37.6601 10.6067 37.5001 10.38C37.3001 10.1267 37.0534 9.97333 36.7601 9.92L31.1201 8.36C30.7068 8.24 30.2668 8.12 29.8001 8C29.3601 7.85333 28.9268 7.72667 28.5001 7.62V40.42L36.7601 38C37.0534 37.9467 37.3001 37.8067 37.5001 37.58C37.6601 37.3533 37.7401 37.0867 37.7401 36.78Z" fill="#F24E1E"/>
</svg>
