<svg width="24" height="24" viewBox="0 0 24 24" fill="none" xmlns="http://www.w3.org/2000/svg">
<path d="M18.97 19.757L15.35 5.27201C15.1882 4.62224 14.8133 4.04541 14.2853 3.63359C13.7573 3.22177 13.1066 2.99871 12.437 3.00001H11.56C10.8909 2.99938 10.2408 3.22275 9.71344 3.63452C9.18604 4.04628 8.81167 4.62274 8.64998 5.27201L5.02998 19.757C4.96766 20.0135 5.0093 20.2843 5.14581 20.5102C5.28232 20.7362 5.50264 20.899 5.75871 20.9631C6.01477 21.0273 6.28582 20.9875 6.51273 20.8527C6.73964 20.7178 6.904 20.4986 6.96998 20.243L8.27998 15H15.72L17.03 20.243C17.096 20.4986 17.2603 20.7178 17.4872 20.8527C17.7141 20.9875 17.9852 21.0273 18.2412 20.9631C18.4973 20.899 18.7176 20.7362 18.8541 20.5102C18.9907 20.2843 19.0323 20.0135 18.97 19.757V19.757ZM8.77998 13L10.591 5.75801C10.6446 5.5414 10.7693 5.34903 10.9452 5.21163C11.121 5.07423 11.3378 4.99972 11.561 5.00001H12.439C12.6621 4.99972 12.8789 5.07423 13.0548 5.21163C13.2306 5.34903 13.3553 5.5414 13.409 5.75801L15.219 13H8.77998Z" fill="#F24E1E"/>
</svg>
