<svg width="49" height="48" viewBox="0 0 49 48" fill="none" xmlns="http://www.w3.org/2000/svg">
<g clip-path="url(#clip0_64_173)">
<path d="M24.2967 0.0135498C12.1407 0.0135498 12.8997 5.30578 12.8997 5.30578L12.9132 10.7887H24.5134V12.4348H8.30573C8.30573 12.4348 0.5271 11.5492 0.5271 23.8626C0.5271 36.1764 7.31647 35.7397 7.31647 35.7397H11.3684V30.0256C11.3684 30.0256 11.1499 23.2096 18.0494 23.2096H29.5547C29.5547 23.2096 36.0188 23.3144 36.0188 16.9378V6.39435C36.0188 6.39435 37.0005 0.0135498 24.2967 0.0135498ZM17.9003 3.7007C18.1744 3.70045 18.4459 3.75448 18.6992 3.85967C18.9525 3.96487 19.1826 4.11918 19.3765 4.31378C19.5703 4.50837 19.724 4.73943 19.8288 4.99372C19.9336 5.24802 19.9874 5.52056 19.9872 5.79576C19.9874 6.07096 19.9336 6.3435 19.8288 6.5978C19.724 6.85209 19.5703 7.08315 19.3765 7.27774C19.1826 7.47234 18.9525 7.62665 18.6992 7.73185C18.4459 7.83705 18.1744 7.89107 17.9003 7.89082C17.6262 7.89107 17.3547 7.83705 17.1014 7.73185C16.8481 7.62665 16.6179 7.47234 16.4241 7.27774C16.2303 7.08315 16.0766 6.85209 15.9718 6.5978C15.867 6.3435 15.8132 6.07096 15.8134 5.79576C15.8132 5.52056 15.867 5.24802 15.9718 4.99372C16.0766 4.73943 16.2303 4.50837 16.4241 4.31378C16.6179 4.11918 16.8481 3.96487 17.1014 3.85967C17.3547 3.75448 17.6262 3.70045 17.9003 3.7007Z" fill="url(#paint0_linear_64_173)"/>
<path d="M24.642 47.8355C36.798 47.8355 36.039 42.5432 36.039 42.5432L36.0255 37.0605H24.4251V35.4144H40.6327C40.6327 35.4144 48.4114 36.3 48.4114 23.9862C48.4114 11.6726 41.622 12.1093 41.622 12.1093H37.5701V17.8232C37.5701 17.8232 37.7886 24.6392 30.8891 24.6392H19.3837C19.3837 24.6392 12.9197 24.5344 12.9197 30.9112V41.4548C12.9197 41.4548 11.9381 47.8355 24.6418 47.8355H24.642ZM31.0384 44.1487C30.7642 44.1489 30.4928 44.0949 30.2395 43.9897C29.9862 43.8845 29.756 43.7302 29.5622 43.5356C29.3683 43.341 29.2146 43.1099 29.1098 42.8557C29.0051 42.6014 28.9513 42.3288 28.9515 42.0536C28.9512 41.7784 29.005 41.5058 29.1098 41.2515C29.2146 40.9972 29.3683 40.7661 29.5621 40.5715C29.7559 40.3769 29.9861 40.2226 30.2394 40.1174C30.4927 40.0121 30.7642 39.9581 31.0384 39.9584C31.3125 39.9581 31.584 40.0121 31.8373 40.1173C32.0906 40.2225 32.3207 40.3769 32.5146 40.5714C32.7084 40.766 32.8621 40.9971 32.9669 41.2514C33.0717 41.5057 33.1255 41.7782 33.1252 42.0534C33.1255 42.3286 33.0717 42.6012 32.9669 42.8555C32.8621 43.1098 32.7084 43.3408 32.5146 43.5354C32.3207 43.73 32.0906 43.8843 31.8373 43.9895C31.584 44.0947 31.3125 44.1487 31.0384 44.1485V44.1487Z" fill="url(#paint1_linear_64_173)"/>
</g>
<defs>
<linearGradient id="paint0_linear_64_173" x1="5.12875" y1="4.31485" x2="28.9506" y2="27.8069" gradientUnits="userSpaceOnUse">
<stop stop-color="#387EB8"/>
<stop offset="1" stop-color="#366994"/>
</linearGradient>
<linearGradient id="paint1_linear_64_173" x1="19.6943" y1="19.4599" x2="45.2716" y2="43.5445" gradientUnits="userSpaceOnUse">
<stop stop-color="#FFE052"/>
<stop offset="1" stop-color="#FFC331"/>
</linearGradient>
<clipPath id="clip0_64_173">
<rect width="48" height="48" fill="white" transform="translate(0.5)"/>
</clipPath>
</defs>
</svg>
