<svg width="49" height="48" viewBox="0 0 49 48" fill="none" xmlns="http://www.w3.org/2000/svg">
<path d="M41.82 14C41.5613 13.5289 41.1816 13.1353 40.72 12.86L26.04 4.38C25.5643 4.13283 25.0361 4.00378 24.5 4.00378C23.9639 4.00378 23.4357 4.13283 22.96 4.38L8.27999 12.86C7.83021 13.1489 7.45584 13.541 7.188 14.0036C6.92016 14.4662 6.76657 14.9861 6.73999 15.52V32.48C6.75449 33.0159 6.90597 33.5392 7.17999 34C7.43868 34.4711 7.81841 34.8647 8.27999 35.14L22.96 43.62C23.4357 43.8672 23.9639 43.9962 24.5 43.9962C25.0361 43.9962 25.5643 43.8672 26.04 43.62L40.72 35.14C41.1816 34.8647 41.5613 34.4711 41.82 34C42.094 33.5392 42.2455 33.0159 42.26 32.48V15.52C42.2455 14.9841 42.094 14.4608 41.82 14ZM24.5 35.84C22.4278 35.8307 20.3944 35.2778 18.6029 34.2365C16.8114 33.1951 15.3245 31.7018 14.2909 29.9058C13.2573 28.1098 12.7132 26.074 12.7129 24.0018C12.7126 21.9296 13.2562 19.8937 14.2893 18.0974C15.3223 16.3011 16.8087 14.8073 18.6 13.7655C20.3912 12.7236 22.4245 12.1701 24.4966 12.1603C26.5688 12.1504 28.6072 12.6846 30.4083 13.7093C32.2093 14.7341 33.7099 16.2136 34.76 18L32.5 19.42L31.78 19.82L29.78 21.04C29.1414 19.8559 28.1234 18.9207 26.8895 18.3847C25.6556 17.8487 24.2773 17.7429 22.976 18.0844C21.6748 18.4259 20.526 19.1947 19.7143 20.2676C18.9025 21.3404 18.4749 22.6549 18.5 24C18.4943 25.0408 18.7708 26.0637 19.3 26.96C19.8348 27.8417 20.5878 28.5706 21.4864 29.0766C22.385 29.5825 23.3988 29.8482 24.43 29.8482C25.4612 29.8482 26.475 29.5825 27.3736 29.0766C28.2722 28.5706 29.0252 27.8417 29.56 26.96L34.76 30C33.7071 31.7832 32.2065 33.2603 30.4068 34.2847C28.607 35.3091 26.5708 35.8452 24.5 35.84ZM36.34 24.66H35.02V26H33.72V24.68H32.5V23.36H33.82V22H35.12V23.32H36.44L36.34 24.66ZM41.28 24.66H39.96V26H38.64V24.68H37.34V23.36H38.64V22H39.96V23.32H41.28V24.66Z" fill="#9747FF"/>
</svg>
