<svg width="49" height="56" viewBox="0 0 49 56" fill="none" xmlns="http://www.w3.org/2000/svg">
<g clip-path="url(#clip0_64_179)">
<path d="M15.9788 43.2905C15.9788 43.2905 13.5042 44.5327 17.74 44.953C22.8717 45.4583 25.4943 45.3859 31.1495 44.4619C31.1495 44.4619 32.6363 45.2667 34.7125 45.9637C22.0355 50.6537 6.02147 45.692 15.9788 43.2905ZM14.4297 37.1703C14.4297 37.1703 11.6542 38.9438 15.8932 39.3222C21.3749 39.8104 25.7039 39.8504 33.1949 38.6052C33.1949 38.6052 34.231 39.5119 35.8602 40.0078C20.5327 43.8767 3.4606 40.3129 14.4297 37.1703Z" fill="#5382A1"/>
<path d="M27.4891 26.7886C30.6129 29.8928 26.6684 32.6864 26.6684 32.6864C26.6684 32.6864 34.5999 29.1521 30.9573 24.7261C27.5553 20.5989 24.9462 18.548 39.0701 11.4774C39.0701 11.4774 16.9004 16.2568 27.4891 26.7884" fill="#E76F00"/>
<path d="M44.2558 47.8172C44.2558 47.8172 46.0871 49.1196 42.2388 50.1273C34.9215 52.0408 11.7828 52.6186 5.35496 50.2035C3.0444 49.336 7.37752 48.1318 8.74046 47.879C10.1619 47.6129 10.9743 47.6626 10.9743 47.6626C8.40465 46.1 -5.63497 50.7308 3.84296 52.0568C29.6904 55.6751 50.9602 50.4276 44.2558 47.8172ZM17.1688 30.8291C17.1688 30.8291 5.39921 33.2423 13.001 34.1184C16.2106 34.4893 22.6091 34.4055 28.5691 33.9743C33.44 33.6199 38.331 32.8657 38.331 32.8657C38.331 32.8657 36.6135 33.5006 35.3709 34.233C23.4189 36.9464 0.329774 35.6841 6.97684 32.9086C12.5983 30.563 17.169 30.8291 17.169 30.8291M38.2824 41.0163C50.4324 35.5664 44.8147 30.3293 40.8937 31.035C39.9326 31.2075 39.5041 31.3571 39.5041 31.3571C39.5041 31.3571 39.861 30.8747 40.5423 30.666C48.2992 28.3119 54.2649 37.6088 38.0383 41.2909C38.0383 41.2911 38.2263 41.1461 38.2824 41.0163Z" fill="#5382A1"/>
<path d="M30.9573 0.0600984C30.9573 0.0600984 37.6861 5.8705 24.5753 14.8048C14.062 21.9718 22.178 26.0582 24.571 30.7271C18.4342 25.9476 13.9304 21.7402 16.952 17.8244C21.3865 12.076 33.6721 9.28909 30.9573 0.0599365" fill="#E76F00"/>
<path d="M18.3627 55.7839C30.025 56.4284 47.9337 55.4264 48.3578 50.663C48.3578 50.663 47.5426 52.4689 38.7196 53.9029C28.7656 55.5198 16.4888 55.331 9.20728 54.2947C9.20746 54.2947 10.6979 55.3597 18.3629 55.7839" fill="#5382A1"/>
</g>
<defs>
<clipPath id="clip0_64_179">
<rect width="48" height="56" fill="white" transform="translate(0.5)"/>
</clipPath>
</defs>
</svg>
