<svg width="66" height="32" viewBox="0 0 66 32" fill="none" xmlns="http://www.w3.org/2000/svg">
<path d="M40 2H66V28H40V2Z" fill="#F7DF1E"/>
<path d="M46.8364 23.7276L48.826 22.5234C49.2099 23.204 49.5591 23.7799 50.3966 23.7799C51.1995 23.7799 51.7058 23.4658 51.7058 22.2442V13.9366H54.1491V22.2788C54.1491 24.8094 52.6657 25.9613 50.5014 25.9613C48.5468 25.9613 47.4122 24.949 46.8363 23.7274M55.4762 23.4657L57.4656 22.3139C57.9894 23.1692 58.67 23.7974 59.8742 23.7974C60.8866 23.7974 61.5322 23.2912 61.5322 22.5931C61.5322 21.7554 60.869 21.4586 59.752 20.9701L59.1413 20.7081C57.3785 19.9579 56.2092 19.0154 56.2092 17.0258C56.2092 15.1932 57.6054 13.7969 59.787 13.7969C61.3403 13.7969 62.4573 14.338 63.26 15.7516L61.3576 16.9734C60.9386 16.223 60.4851 15.9263 59.7869 15.9263C59.0713 15.9263 58.6175 16.3801 58.6175 16.9734C58.6175 17.7064 59.0713 18.0033 60.1184 18.4571L60.7292 18.7188C62.8062 19.609 63.9755 20.5165 63.9755 22.5583C63.9755 24.7575 62.2477 25.9616 59.9265 25.9616C57.6577 25.9616 56.1916 24.8796 55.4761 23.4658" fill="black"/>
<path d="M25.902 27.201L23.656 2H48.344L46.095 27.197L35.985 30L25.902 27.201Z" fill="#1572B6"/>
<path d="M36 27.858L44.17 25.593L46.092 4.06104H36V27.858Z" fill="#33A9DC"/>
<path d="M36 13.1911H40.09L40.372 10.0261H36V6.93506H43.75L43.676 7.76406L42.917 16.2821H36V13.1911V13.1911Z" fill="white"/>
<path d="M36.019 21.2179L36.005 21.2219L32.563 20.2919L32.343 17.8269H29.24L29.673 22.6799L36.004 24.4379L36.019 24.4339V21.2179V21.2179Z" fill="#EBEBEB"/>
<path d="M39.827 16.1509L39.455 20.2899L36.008 21.2199V24.4359L42.344 22.6799L42.391 22.1579L42.928 16.1509H39.827V16.1509Z" fill="white"/>
<path d="M36.011 6.93506V10.0261H28.545L28.483 9.33106L28.342 7.76406L28.268 6.93506H36.011V6.93506ZM36 13.1911V16.2821H32.601L32.539 15.5871L32.399 14.0201L32.325 13.1911H36V13.1911Z" fill="#EBEBEB"/>
<path d="M5.902 27.201L3.655 2H28.345L26.095 27.197L15.985 30L5.902 27.201Z" fill="#E44F26"/>
<path d="M16 27.858L24.17 25.593L26.092 4.06104H16V27.858Z" fill="#F1662A"/>
<path d="M16 13.4069H11.91L11.628 10.2419H16V7.15088H8.25L8.324 7.98088L9.083 16.4979H16V13.4069V13.4069ZM16 21.4339L15.986 21.4379L12.544 20.5089L12.324 18.0439H9.221L9.654 22.8959L15.986 24.6539L16 24.6499V21.4339Z" fill="#EBEBEB"/>
<path d="M15.989 13.4069V16.4979H19.795L19.437 20.5069L15.989 21.4369V24.6529L22.326 22.8959L22.372 22.3739L23.098 14.2369L23.174 13.4069H15.989V13.4069ZM15.989 7.15088V10.2419H23.455L23.517 9.54788L23.658 7.98088L23.732 7.15088H15.989V7.15088Z" fill="white"/>
</svg>
