<svg width="48" height="48" viewBox="0 0 48 48" fill="none" xmlns="http://www.w3.org/2000/svg">
<path d="M5.32999 34.669C2.99127 30.5731 2.06364 25.822 2.68991 21.1472C3.31619 16.4723 5.46164 12.1329 8.79599 8.797L24 24L8.79699 39.203C11.632 42.0359 15.2024 44.0198 19.1052 44.9308C23.0081 45.8419 27.0879 45.6438 30.884 44.3589C34.6802 43.074 38.0417 40.7534 40.5888 37.6592C43.136 34.565 44.7674 30.8204 45.299 26.848C45.8306 22.8757 45.2412 18.8338 43.5972 15.1788C41.9533 11.5237 39.3203 8.40095 35.9955 6.16309C32.6708 3.92523 28.7866 2.66135 24.7816 2.51414C20.7765 2.36694 16.8101 3.34226 13.33 5.33" stroke="#0FA958" stroke-linecap="round" stroke-linejoin="round"/>
</svg>
