<svg width="24" height="24" viewBox="0 0 24 24" fill="none" xmlns="http://www.w3.org/2000/svg">
<path d="M21.564 12.027C21.757 12.0342 21.9494 12.0024 22.1298 11.9335C22.3102 11.8647 22.4748 11.7601 22.6139 11.6262C22.7529 11.4922 22.8635 11.3316 22.9391 11.1539C23.0146 10.9762 23.0536 10.7851 23.0536 10.592C23.0536 10.3989 23.0146 10.2078 22.9391 10.0301C22.8635 9.85241 22.7529 9.69178 22.6139 9.55781C22.4748 9.42385 22.3102 9.31931 22.1298 9.25044C21.9494 9.18157 21.757 9.14978 21.564 9.15699C21.533 9.15699 21.504 9.16299 21.472 9.16499L20.99 7.26499C21.1494 7.14537 21.282 6.99376 21.3793 6.81989C21.4767 6.64603 21.5366 6.45373 21.5553 6.25535C21.5739 6.05696 21.5509 5.85686 21.4878 5.66788C21.4246 5.4789 21.3226 5.30521 21.1884 5.15795C21.0541 5.01069 20.8906 4.89311 20.7082 4.81275C20.5259 4.7324 20.3288 4.69104 20.1295 4.69132C19.9302 4.69161 19.7332 4.73354 19.5511 4.81442C19.369 4.8953 19.2058 5.01334 19.072 5.16099L14.182 2.88799C14.2331 2.74268 14.2601 2.59001 14.262 2.43599C14.2671 2.24429 14.2337 2.05352 14.1638 1.87493C14.0939 1.69634 13.989 1.53356 13.8552 1.39618C13.7214 1.2588 13.5615 1.14961 13.3848 1.07506C13.2081 1.00051 13.0183 0.962097 12.8265 0.962097C12.6347 0.962097 12.4449 1.00051 12.2682 1.07506C12.0915 1.14961 11.9316 1.2588 11.7978 1.39618C11.664 1.53356 11.5591 1.69634 11.4892 1.87493C11.4193 2.05352 11.3859 2.24429 11.391 2.43599C11.3935 2.48488 11.3985 2.53362 11.406 2.58199L8.292 3.53699C8.07696 3.2698 7.77305 3.08879 7.43568 3.02699C7.09832 2.96518 6.74998 3.02668 6.45418 3.20028C6.15838 3.37388 5.93483 3.64801 5.82429 3.97269C5.71375 4.29737 5.72358 4.65096 5.852 4.96899L2.922 7.58499C2.70099 7.44965 2.44715 7.37737 2.188 7.37599C1.84496 7.37434 1.51275 7.49597 1.25187 7.71873C0.991 7.94149 0.818827 8.25055 0.76672 8.58961C0.714613 8.92867 0.786039 9.27516 0.967988 9.56597C1.14994 9.85678 1.4303 10.0726 1.758 10.174L1.564 12.04C1.34532 12.0703 1.13661 12.1508 0.954184 12.2751C0.771755 12.3995 0.620545 12.5643 0.512367 12.7567C0.404189 12.9492 0.341974 13.164 0.330582 13.3845C0.31919 13.605 0.35893 13.8251 0.446697 14.0277C0.534464 14.2303 0.667881 14.4098 0.836524 14.5523C1.00517 14.6948 1.20447 14.7963 1.41886 14.849C1.63325 14.9017 1.85692 14.9041 2.0724 14.8561C2.28787 14.808 2.48932 14.7108 2.661 14.572L3.627 14.997L3.624 15.027C3.62543 15.3846 3.76042 15.7287 4.00249 15.992C4.24456 16.2552 4.57623 16.4184 4.93246 16.4497C5.28869 16.481 5.64376 16.3781 5.92802 16.1612C6.21228 15.9442 6.40523 15.6289 6.469 15.277H7.573C7.65965 15.589 7.84963 15.8624 8.11186 16.0524C8.37408 16.2423 8.69303 16.3377 9.01651 16.3228C9.33999 16.308 9.64884 16.1838 9.89254 15.9705C10.1362 15.7573 10.3003 15.4676 10.358 15.149L13.465 15.251C13.6924 15.4472 13.9769 15.5653 14.2764 15.5878C14.5759 15.6103 14.8748 15.536 15.129 15.376C16.883 16.333 18.3624 17.7236 19.426 19.415C19.3559 19.5854 19.3196 19.7677 19.319 19.952C19.3176 20.1974 19.3792 20.4391 19.4978 20.6539C19.6164 20.8688 19.7881 21.0496 19.9964 21.1793C20.2048 21.3089 20.4429 21.383 20.6881 21.3944C20.9332 21.4058 21.1772 21.3542 21.3967 21.2446C21.6163 21.1349 21.804 20.9708 21.9421 20.7679C22.0802 20.565 22.164 20.3302 22.1855 20.0857C22.207 19.8412 22.1654 19.5953 22.0649 19.3715C21.9643 19.1476 21.808 18.9533 21.611 18.807C21.1086 18.076 20.7558 17.2529 20.573 16.385C20.8192 16.3068 21.0394 16.163 21.2101 15.9691C21.3807 15.7752 21.4954 15.5385 21.5416 15.2844C21.5879 15.0302 21.5641 14.7683 21.4727 14.5267C21.3813 14.2851 21.2259 14.0729 21.023 13.913L21.563 12.027H21.564ZM22.129 10.592C22.1288 10.7035 22.0956 10.8124 22.0335 10.905C21.9715 10.9975 21.8834 11.0697 21.7804 11.1122C21.6774 11.1548 21.564 11.1659 21.4547 11.1441C21.3454 11.1223 21.245 11.0686 21.1662 10.9898C21.0874 10.911 21.0337 10.8106 21.0119 10.7013C20.9901 10.592 21.0012 10.4786 21.0437 10.3756C21.0863 10.2726 21.1584 10.1845 21.251 10.1225C21.3436 10.0604 21.4525 10.0272 21.564 10.027C21.7138 10.027 21.8576 10.0865 21.9635 10.1925C22.0695 10.2984 22.129 10.4421 22.129 10.592ZM20.985 9.27999C20.7507 9.38468 20.5488 9.55032 20.4004 9.75964C20.2519 9.96895 20.1623 10.2143 20.141 10.47H19.02C19.0036 10.2746 18.947 10.0847 18.854 9.91214C18.7609 9.73957 18.6332 9.58804 18.479 9.46699L19.886 7.53399C20.1015 7.57745 20.3245 7.56366 20.533 7.49399L20.985 9.27999ZM18.711 14.847L15.813 14.105C15.8013 13.7816 15.6796 13.4719 15.468 13.227L16.638 11.652C16.8176 11.8211 17.0393 11.9388 17.28 11.9928C17.5206 12.0468 17.7714 12.0351 18.006 11.959L19.258 13.893C19.1083 14.008 18.9829 14.1515 18.889 14.3152C18.7951 14.479 18.7346 14.6597 18.711 14.847V14.847ZM8.251 5.38499L12.332 7.52099C12.2448 7.77452 12.2389 8.04892 12.315 8.30599L9.695 9.65299C9.56162 9.49776 9.39641 9.37304 9.21059 9.28729C9.02476 9.20153 8.82266 9.15675 8.618 9.15599C8.606 9.15599 8.595 9.15899 8.583 9.15999L7.64 5.78999C7.8754 5.71037 8.08598 5.57078 8.251 5.38499V5.38499ZM19.4 7.35399L18.033 9.22999C17.8024 9.15034 17.5548 9.13355 17.3156 9.18136C17.0764 9.22916 16.8542 9.33984 16.672 9.50199L15.081 8.30199C15.1357 8.13082 15.1477 7.94887 15.116 7.77199L18.823 6.71199C18.9455 6.97922 19.1468 7.20255 19.4 7.35199V7.35399ZM17.596 11.156C17.4845 11.1558 17.3755 11.1225 17.2829 11.0605C17.1903 10.9984 17.1182 10.9102 17.0756 10.8071C17.0331 10.7041 17.0221 10.5907 17.044 10.4813C17.0658 10.372 17.1196 10.2716 17.1985 10.1928C17.2775 10.1141 17.378 10.0604 17.4873 10.0388C17.5967 10.0171 17.7101 10.0283 17.8131 10.071C17.9161 10.1137 18.0041 10.186 18.066 10.2788C18.1279 10.3715 18.161 10.4805 18.161 10.592C18.1607 10.7417 18.1011 10.8851 17.9952 10.9909C17.8892 11.0966 17.7457 11.156 17.596 11.156V11.156ZM13.697 8.50599C13.5855 8.50579 13.4766 8.47257 13.384 8.41052C13.2914 8.34847 13.2193 8.26038 13.1767 8.15736C13.1342 8.05434 13.1231 7.94103 13.1449 7.83171C13.1667 7.7224 13.2204 7.622 13.2992 7.54318C13.378 7.46436 13.4784 7.41067 13.5877 7.38888C13.697 7.36708 13.8104 7.37817 13.9134 7.42073C14.0164 7.46329 14.1045 7.53543 14.1665 7.62802C14.2286 7.72062 14.2618 7.82953 14.262 7.94099C14.2617 8.09066 14.2021 8.23412 14.0962 8.33986C13.9902 8.4456 13.8467 8.50499 13.697 8.50499V8.50599ZM8.617 10.027C8.72851 10.027 8.83751 10.06 8.93024 10.122C9.02297 10.1839 9.09525 10.2719 9.13797 10.3749C9.18069 10.4779 9.19192 10.5913 9.17023 10.7007C9.14855 10.81 9.09494 10.9105 9.01616 10.9894C8.93738 11.0684 8.83698 11.1222 8.72764 11.144C8.6183 11.1659 8.50493 11.1549 8.40186 11.1123C8.29878 11.0698 8.21063 10.9977 8.14854 10.9051C8.08644 10.8124 8.0532 10.7035 8.053 10.592C8.053 10.4421 8.11253 10.2984 8.21848 10.1925C8.32444 10.0865 8.46815 10.027 8.618 10.027H8.617ZM10.053 10.592C10.0521 10.4171 10.0189 10.2438 9.955 10.081L12.523 8.76099C12.6549 8.95052 12.8306 9.10541 13.0351 9.21248C13.2397 9.31956 13.4671 9.37565 13.698 9.37599L13.722 9.37399L13.288 13.034L9.382 13.528C9.30372 13.5031 9.22341 13.485 9.142 13.474L8.845 12.004C9.18111 11.9501 9.48713 11.7786 9.70841 11.5199C9.9297 11.2613 10.0518 10.9324 10.053 10.592V10.592ZM8.95 14.325C9.06146 14.3252 9.17037 14.3584 9.26296 14.4205C9.35556 14.4825 9.42769 14.5706 9.47026 14.6736C9.51282 14.7766 9.52391 14.89 9.50211 14.9993C9.48032 15.1086 9.42662 15.209 9.34781 15.2878C9.26899 15.3666 9.16859 15.4203 9.05928 15.4421C8.94996 15.4639 8.83664 15.4528 8.73363 15.4102C8.63061 15.3677 8.54252 15.2955 8.48047 15.203C8.41842 15.1104 8.3852 15.0015 8.385 14.89C8.385 14.7401 8.44453 14.5964 8.55048 14.4905C8.65644 14.3845 8.80015 14.325 8.95 14.325V14.325ZM10.026 13.95L13.079 13.565C12.9935 13.7485 12.9488 13.9484 12.9479 14.1509C12.9471 14.3534 12.9901 14.5537 13.074 14.738L10.361 14.65C10.3163 14.3901 10.2004 14.1478 10.026 13.95V13.95ZM14.239 9.26799C14.4918 9.16433 14.71 8.99092 14.868 8.76799L16.354 9.88799C16.2336 10.0917 16.1676 10.323 16.1623 10.5596C16.1571 10.7962 16.2127 11.0301 16.324 11.239L15.081 12.909C14.8905 12.7987 14.6767 12.7349 14.4569 12.7227C14.2371 12.7105 14.0175 12.7504 13.816 12.839L14.239 9.26799ZM20.129 5.55999C20.2405 5.55999 20.3496 5.59307 20.4423 5.65504C20.5351 5.71701 20.6074 5.8051 20.6501 5.90815C20.6928 6.01121 20.7039 6.12461 20.6822 6.23402C20.6604 6.34342 20.6067 6.44392 20.5278 6.5228C20.4489 6.60167 20.3484 6.65539 20.239 6.67715C20.1296 6.69891 20.0162 6.68774 19.9132 6.64506C19.8101 6.60237 19.722 6.53008 19.6601 6.43733C19.5981 6.34458 19.565 6.23554 19.565 6.12399C19.5653 5.97431 19.6249 5.83086 19.7308 5.72512C19.8368 5.61938 19.9803 5.55999 20.13 5.55999H20.129ZM18.801 5.58599C18.7308 5.75669 18.6944 5.93941 18.694 6.12399C18.694 6.15899 18.702 6.19199 18.704 6.22699L14.972 7.29299C14.853 7.0569 14.671 6.85834 14.4462 6.71926C14.2213 6.58019 13.9624 6.50603 13.698 6.50499C13.655 6.50499 13.613 6.51499 13.571 6.51799L13.05 3.84799C13.4021 3.79221 13.7207 3.60672 13.943 3.32799L18.801 5.58599ZM12.826 1.86999C12.9375 1.86999 13.0465 1.90304 13.1392 1.96497C13.232 2.0269 13.3043 2.11493 13.347 2.21792C13.3897 2.32092 13.4009 2.43427 13.3792 2.54365C13.3576 2.65303 13.3039 2.75353 13.2252 2.83244C13.1464 2.91136 13.046 2.96515 12.9366 2.98703C12.8273 3.0089 12.7139 2.99788 12.6109 2.95534C12.5078 2.91281 12.4196 2.84067 12.3575 2.74806C12.2954 2.65544 12.2622 2.54649 12.262 2.43499C12.262 2.28531 12.3214 2.14176 12.4271 2.03583C12.5329 1.9299 12.6763 1.87025 12.826 1.86999ZM11.542 3.06199C11.6377 3.25915 11.7772 3.43183 11.9498 3.56684C12.1224 3.70185 12.3236 3.79562 12.538 3.84099L13.086 6.64599C12.879 6.74503 12.6986 6.89212 12.56 7.07499L8.515 4.95899C8.64332 4.64809 8.65152 4.30059 8.538 3.98399L11.542 3.06199ZM7.182 3.86999C7.29351 3.86999 7.40251 3.90304 7.49524 3.96497C7.58796 4.0269 7.66025 4.11493 7.70297 4.21792C7.74569 4.32092 7.75692 4.43427 7.73523 4.54365C7.71355 4.65303 7.65994 4.75353 7.58116 4.83244C7.50238 4.91136 7.40198 4.96515 7.29264 4.98703C7.1833 5.0089 7.06993 4.99788 6.96686 4.95534C6.86378 4.91281 6.77563 4.84068 6.71354 4.74806C6.65144 4.65544 6.6182 4.54649 6.618 4.43499C6.618 4.28531 6.67739 4.14176 6.78313 4.03583C6.88887 3.9299 7.03233 3.87025 7.182 3.86999V3.86999ZM7.142 5.86599L8.092 9.25799C7.81749 9.36659 7.58293 9.55682 7.42 9.80299L3.621 8.83399L3.624 8.81099C3.62233 8.48394 3.50789 8.16747 3.3 7.91499L6.124 5.39599C6.253 5.53893 6.40962 5.65427 6.58441 5.73505C6.7592 5.81583 6.94853 5.86037 7.141 5.86599H7.142ZM2.336 13.453C2.336 13.5645 2.30292 13.6736 2.24095 13.7663C2.17898 13.8591 2.09089 13.9314 1.98783 13.9741C1.88478 14.0167 1.77137 14.0279 1.66197 14.0062C1.55256 13.9844 1.45207 13.9307 1.37319 13.8518C1.29431 13.7729 1.2406 13.6724 1.21884 13.563C1.19707 13.4536 1.20824 13.3402 1.25093 13.2372C1.29362 13.1341 1.36591 13.046 1.45866 12.984C1.55141 12.9221 1.66045 12.889 1.772 12.889C1.9215 12.8893 2.0648 12.9488 2.17052 13.0545C2.27623 13.1602 2.33574 13.3035 2.336 13.453V13.453ZM2.066 12.048L2.255 10.24C2.53233 10.2269 2.79989 10.1336 3.02517 9.97136C3.25046 9.8091 3.42375 9.58489 3.524 9.32599L7.222 10.269C7.17444 10.4575 7.16966 10.6543 7.208 10.845L2.865 12.535C2.66036 12.2879 2.37861 12.1167 2.065 12.049L2.066 12.048ZM2.188 8.24599C2.29951 8.24599 2.40851 8.27904 2.50124 8.34097C2.59396 8.4029 2.66625 8.49093 2.70897 8.59392C2.75169 8.69692 2.76292 8.81027 2.74123 8.91965C2.71955 9.02903 2.66594 9.12953 2.58716 9.20844C2.50838 9.28736 2.40798 9.34115 2.29864 9.36303C2.1893 9.3849 2.07593 9.37388 1.97286 9.33134C1.86978 9.28881 1.78163 9.21667 1.71954 9.12406C1.65744 9.03144 1.6242 8.92249 1.624 8.81099C1.624 8.66131 1.68339 8.51776 1.78913 8.41183C1.89487 8.3059 2.03833 8.24625 2.188 8.24599ZM3.005 14.176C3.11448 13.9976 3.18168 13.7966 3.20144 13.5882C3.2212 13.3799 3.193 13.1698 3.119 12.974L7.385 11.314C7.48157 11.4789 7.61014 11.6229 7.76315 11.7375C7.91616 11.852 8.09053 11.9348 8.276 11.981L6.411 14.564C6.31757 14.2865 6.14113 14.0443 5.90557 13.8704C5.67001 13.6964 5.38669 13.5991 5.09396 13.5914C4.80123 13.5838 4.51322 13.6663 4.26891 13.8277C4.0246 13.9891 3.83578 14.2217 3.728 14.494L3.005 14.176ZM5.059 15.591C4.94754 15.5908 4.83863 15.5576 4.74604 15.4955C4.65344 15.4335 4.5813 15.3454 4.53874 15.2424C4.49618 15.1393 4.48509 15.026 4.50689 14.9167C4.52868 14.8074 4.58238 14.707 4.66119 14.6282C4.74001 14.5494 4.84041 14.4957 4.94972 14.4739C5.05904 14.4521 5.17235 14.4632 5.27537 14.5057C5.37839 14.5483 5.46648 14.6204 5.52853 14.713C5.59058 14.8056 5.6238 14.9145 5.624 15.026C5.624 15.1758 5.56447 15.3195 5.45851 15.4255C5.35256 15.5315 5.20885 15.591 5.059 15.591V15.591ZM8.466 12.285L8.645 13.487C8.34464 13.5534 8.07361 13.7147 7.87194 13.947C7.67026 14.1793 7.54863 14.4703 7.525 14.777H6.825L8.466 12.285ZM14.382 14.72C14.2705 14.7198 14.1616 14.6866 14.069 14.6245C13.9764 14.5625 13.9043 14.4744 13.8617 14.3714C13.8192 14.2683 13.8081 14.155 13.8299 14.0457C13.8517 13.9364 13.9054 13.836 13.9842 13.7572C14.063 13.6784 14.1634 13.6247 14.2727 13.6029C14.382 13.5811 14.4954 13.5922 14.5984 13.6347C14.7014 13.6773 14.7895 13.7494 14.8515 13.842C14.9136 13.9346 14.9468 14.0435 14.947 14.155C14.947 14.3048 14.8875 14.4485 14.7815 14.5545C14.6756 14.6605 14.5318 14.72 14.382 14.72ZM20.755 20.515C20.6435 20.515 20.5344 20.4819 20.4417 20.4199C20.3489 20.358 20.2766 20.2699 20.2339 20.1668C20.1912 20.0638 20.1801 19.9504 20.2018 19.841C20.2236 19.7316 20.2773 19.6311 20.3562 19.5522C20.4351 19.4733 20.5356 19.4196 20.645 19.3978C20.7544 19.3761 20.8678 19.3872 20.9708 19.4299C21.0739 19.4726 21.162 19.5449 21.2239 19.6376C21.2859 19.7304 21.319 19.8394 21.319 19.951C21.3187 20.1005 21.2592 20.2438 21.1535 20.3495C21.0478 20.4552 20.9045 20.5147 20.755 20.515ZM20.755 18.515C20.5644 18.515 20.3757 18.5532 20.2 18.6272C20.0243 18.7012 19.8652 18.8096 19.732 18.946C18.6673 17.3154 17.2226 15.9678 15.522 15.019C15.6052 14.9099 15.6723 14.7893 15.721 14.661L18.744 15.384C18.8216 15.6844 18.9945 15.9515 19.2369 16.1451C19.4793 16.3388 19.7779 16.4486 20.088 16.458C20.2123 17.1904 20.4753 17.8923 20.863 18.526C20.826 18.523 20.792 18.516 20.755 18.516V18.515ZM20.129 15.591C20.0175 15.591 19.9085 15.5579 19.8158 15.496C19.723 15.4341 19.6507 15.3461 19.608 15.2431C19.5653 15.1401 19.5541 15.0267 19.5758 14.9173C19.5974 14.8079 19.6511 14.7074 19.7298 14.6285C19.8086 14.5496 19.909 14.4958 20.0184 14.4739C20.1277 14.4521 20.2411 14.4631 20.3441 14.5056C20.4472 14.5482 20.5354 14.6203 20.5975 14.7129C20.6596 14.8055 20.6928 14.9145 20.693 15.026C20.693 15.1757 20.6336 15.3192 20.5279 15.4252C20.4221 15.5311 20.2787 15.5907 20.129 15.591V15.591ZM20.573 13.668C20.2923 13.5664 19.9851 13.5643 19.703 13.662L18.454 11.734C18.7068 11.544 18.8896 11.2757 18.974 10.971H20.187C20.2476 11.1897 20.3592 11.391 20.5127 11.5582C20.6662 11.7255 20.8572 11.8539 21.07 11.933L20.573 13.668Z" fill="#E4A951"/>
</svg>
