<svg width="24" height="24" viewBox="0 0 24 24" fill="none" xmlns="http://www.w3.org/2000/svg">
<path d="M16 17H13V13H11V17H8V18H2V20H8V21H16V20H22V18H16V17Z" fill="#699BF7"/>
<path d="M18 4H12.207L11.354 3.146L11.207 3H6C5.60234 3.00053 5.22111 3.15873 4.93992 3.43992C4.65873 3.72111 4.50053 4.10234 4.5 4.5V12.5C4.50053 12.8977 4.65873 13.2789 4.93992 13.5601C5.22111 13.8413 5.60234 13.9995 6 14H18C18.3977 13.9995 18.7789 13.8413 19.0601 13.5601C19.3413 13.2789 19.4995 12.8977 19.5 12.5V5.5C19.4995 5.10234 19.3413 4.72111 19.0601 4.43992C18.7789 4.15873 18.3977 4.00053 18 4V4ZM17.5 6V12H6.5V5H10.293L11.146 5.854L11.293 6H17.5Z" fill="#699BF7"/>
</svg>
