<svg width="49" height="48" viewBox="0 0 49 48" fill="none" xmlns="http://www.w3.org/2000/svg">
<g clip-path="url(#clip0_64_176)">
<path d="M0.5 0H48.5V48H0.5V0Z" fill="#F7DF1E"/>
<path d="M13.121 40.1123L16.7942 37.8892C17.5029 39.1457 18.1475 40.2088 19.6938 40.2088C21.176 40.2088 22.1107 39.6291 22.1107 37.3738V22.0367H26.6214V37.4376C26.6214 42.1095 23.8828 44.2361 19.8872 44.2361C16.2787 44.2361 14.1842 42.3673 13.1208 40.1119M29.0715 39.6289L32.7442 37.5024C33.7112 39.0814 34.9678 40.2412 37.1908 40.2412C39.06 40.2412 40.2517 39.3067 40.2517 38.0179C40.2517 36.4714 39.0274 35.9235 36.9652 35.0216L35.8378 34.5379C32.5834 33.1528 30.4247 31.4128 30.4247 27.7397C30.4247 24.3564 33.0022 21.7787 37.0299 21.7787C39.8975 21.7787 41.9597 22.7777 43.4417 25.3875L39.9294 27.6431C39.156 26.2577 38.3186 25.71 37.0297 25.71C35.7086 25.71 34.8709 26.5477 34.8709 27.6431C34.8709 28.9963 35.7086 29.5444 37.6417 30.3821L38.7693 30.8653C42.6037 32.5087 44.7624 34.1841 44.7624 37.9536C44.7624 42.0137 41.5727 44.2367 37.2873 44.2367C33.0988 44.2367 30.3922 42.2391 29.0713 39.6291" fill="black"/>
</g>
<defs>
<clipPath id="clip0_64_176">
<rect width="48" height="48" fill="white" transform="translate(0.5)"/>
</clipPath>
</defs>
</svg>
