<svg width="48" height="48" viewBox="0 0 256 256" fill="none" xmlns="http://www.w3.org/2000/svg">
<path d="M128 256C198.692 256 256 198.692 256 128C256 57.3075 198.692 0 128 0C57.3075 0 0 57.3075 0 128C0 198.692 57.3075 256 128 256Z" fill="#93056B"/>
<path d="M38.903 36.1001L219.736 217.266C196.483 241.16 163.974 256 128 256C57.308 256 0 198.692 0 128C0 91.9401 14.91 59.3641 38.903 36.1001Z" fill="white" fill-opacity="0.1"/>
<path d="M121.72 174.2C113.012 178.437 103.397 180.47 93.72 180.12C87.3247 180.4 80.9434 179.311 75.0037 176.924C69.0639 174.537 63.703 170.908 59.28 166.28C50.3887 156.313 45.7513 143.263 46.36 129.92C46.0502 122.763 47.1792 115.617 49.6801 108.905C52.181 102.192 56.003 96.0494 60.92 90.8401C65.7225 85.9267 71.4972 82.0692 77.875 79.5139C84.2528 76.9587 91.0935 75.7619 97.96 76.0001C106.07 75.6906 114.158 77.0521 121.72 80.0001V92.6001C114.385 88.5236 106.11 86.441 97.72 86.5601C92.4958 86.3869 87.2949 87.3323 82.4659 89.3329C77.6368 91.3335 73.2911 94.3431 69.72 98.1601C62.23 106.698 58.3566 117.816 58.92 129.16C58.3659 139.881 61.9776 150.401 69 158.52C72.3668 162.14 76.476 164.99 81.0463 166.875C85.6166 168.759 90.5401 169.634 95.48 169.44C104.698 169.669 113.797 167.329 121.76 162.68L121.72 174.2V174.2ZM211.04 105.84L209.44 113.28H191.04L186.64 134.4H206.4L204.52 141.84H185.16L178.96 169.84H170.12L176.16 141.84H158.56L152.64 169.84H144L149.92 141.84H131.36L132.76 134.4H151.4L155.68 113.32H136.2L137.68 105.88H157.16L163.08 77.6001H172L166.08 105.88H183.8L189.84 77.6001H198.48L192.56 105.88L211.04 105.84V105.84ZM182.36 113.28H164.6L160 134.4H177.84L182.36 113.28V113.28Z" fill="white"/>
</svg>
