<svg width="101" height="101" viewBox="0 0 101 101" fill="none" xmlns="http://www.w3.org/2000/svg">
<path d="M84.1842 38.2778V38.2778C90.3486 38.2778 93.4308 38.2778 94.2921 39.8017C94.4761 40.1275 94.5977 40.4848 94.6504 40.8552C94.897 42.5882 92.454 44.4676 87.5682 48.2263L72.7744 59.6071C71.166 60.8446 70.3617 61.4633 70.0782 62.365C69.7948 63.2667 70.1003 64.2343 70.7114 66.1695L75.8053 82.3002C78.1631 89.7664 79.342 93.4995 77.538 94.7616C75.734 96.0237 72.6311 93.6366 66.4253 88.8625L54.1585 79.4256C52.3998 78.0726 51.5204 77.3961 50.5 77.3961C49.4796 77.3961 48.6002 78.0726 46.8415 79.4256L34.5747 88.8625C28.3689 93.6366 25.266 96.0237 23.462 94.7616C21.658 93.4995 22.8369 89.7664 25.1947 82.3002L30.2886 66.1695C30.8997 64.2343 31.2052 63.2667 30.9218 62.365C30.6383 61.4633 29.834 60.8446 28.2256 59.6071L14.4809 49.0334C8.68544 44.5749 5.78769 42.3456 6.47952 40.3117C7.17135 38.2778 10.8274 38.2778 18.1394 38.2778H34.4846C36.6225 38.2778 37.6915 38.2778 38.4864 37.69C39.2814 37.1022 39.5946 36.0801 40.2211 34.0361L44.7634 19.2163C47.109 11.5637 48.2818 7.73731 50.5 7.73731C52.7182 7.73731 53.891 11.5637 56.2366 19.2163L60.7789 34.0361C61.4054 36.0801 61.7186 37.1022 62.5136 37.69C63.3085 38.2778 64.3775 38.2778 66.5154 38.2778H69.4474" stroke="#F0B310" stroke-width="5"/>
<path d="M50.5 27.7222L56.3504 46.6111H60.0734H75.7631L60.0734 58.5556L66.1897 77.7222L50.5 65.7778L34.8102 77.7222L40.9266 58.5556L25.2368 46.6111H44.6496L50.5 27.7222Z" stroke="#F0B310" stroke-width="5"/>
</svg>
